<svg id="Capa_1" enable-background="new 0 0 512.183 512.183" height="512" viewBox="0 0 512.183 512.183" width="512" xmlns="http://www.w3.org/2000/svg"><g><g><path d="m499.266 238.742c15.057-24.831 7.784-56.689-16.555-72.529-10.49-6.826-16.259-18.805-15.055-31.262 2.791-28.905-17.583-54.454-46.385-58.164-12.412-1.599-22.808-9.889-27.129-21.635-10.026-27.253-39.472-41.432-67.026-32.278-11.875 3.946-24.838.987-33.828-7.721-20.858-20.204-53.536-20.205-74.395 0-8.988 8.708-21.953 11.667-33.828 7.721-27.557-9.151-57 5.024-67.026 32.278-4.321 11.746-14.717 20.036-27.129 21.635-28.802 3.71-49.176 29.259-46.385 58.164 1.204 12.457-4.564 24.436-15.055 31.262-24.338 15.84-31.61 47.698-16.553 72.529 6.489 10.702 6.489 23.998 0 34.699-15.057 24.831-7.785 56.689 16.554 72.529 10.49 6.826 16.259 18.805 15.055 31.262-2.791 28.905 17.583 54.454 46.385 58.164 12.412 1.599 22.808 9.889 27.129 21.635 7.967 21.656 28.188 35.056 49.987 35.054 5.635 0 11.379-.896 17.039-2.776 11.876-3.945 24.839-.986 33.828 7.721 10.431 10.104 23.812 15.154 37.197 15.153 13.382-.001 26.77-5.052 37.197-15.153 8.988-8.708 21.952-11.667 33.828-7.721 27.559 9.152 57.001-5.024 67.026-32.278 4.321-11.746 14.717-20.036 27.129-21.635 28.802-3.71 49.176-29.259 46.385-58.164-1.204-12.457 4.564-24.436 15.055-31.262 24.339-15.839 31.611-47.697 16.555-72.528-6.489-10.703-6.489-23.999 0-34.7zm-17.101 45.069c9.424 15.542 4.872 35.482-10.361 45.396-16.76 10.906-25.978 30.045-24.055 49.948 1.748 18.091-11.005 34.083-29.031 36.405-19.832 2.555-36.44 15.799-43.344 34.565-6.276 17.058-24.702 25.932-41.952 20.203-18.974-6.304-39.686-1.576-54.049 12.336-13.055 12.646-33.508 12.646-46.562 0-10.157-9.838-23.485-15.083-37.132-15.083-5.651 0-11.36.9-16.917 2.746-17.252 5.731-35.676-3.145-41.952-20.203-6.903-18.766-23.512-32.011-43.344-34.565-18.026-2.322-30.779-18.313-29.031-36.404 1.923-19.903-7.295-39.042-24.055-49.949-15.233-9.914-19.785-29.854-10.361-45.396 10.368-17.098 10.368-38.341 0-55.439-9.424-15.542-4.872-35.482 10.361-45.396 16.76-10.906 25.978-30.045 24.055-49.948-1.748-18.091 11.005-34.083 29.031-36.405 19.832-2.555 36.44-15.799 43.344-34.565 6.276-17.058 24.7-25.934 41.952-20.203 18.975 6.303 39.686 1.576 54.049-12.336 13.055-12.646 33.508-12.646 46.562 0 14.363 13.913 35.074 18.639 54.049 12.336 17.253-5.729 35.677 3.145 41.952 20.203 6.903 18.766 23.512 32.011 43.344 34.565 18.026 2.322 30.779 18.313 29.031 36.404-1.923 19.903 7.295 39.042 24.055 49.949 15.233 9.914 19.785 29.854 10.361 45.396-10.369 17.099-10.369 38.342 0 55.44z"/><path d="m303.006 71.376c-5.352-1.359-10.793 1.884-12.149 7.239-1.355 5.354 1.886 10.793 7.239 12.149 75.678 19.165 128.532 87.15 128.532 165.328 0 94.035-76.503 170.537-170.537 170.537s-170.537-76.503-170.537-170.538c0-77.999 52.704-145.945 128.168-165.235 5.351-1.368 8.58-6.814 7.212-12.165-1.367-5.351-6.814-8.582-12.165-7.212-84.322 21.555-143.215 97.47-143.215 184.612 0 105.062 85.475 190.537 190.537 190.537s190.537-85.475 190.537-190.537c0-87.343-59.059-163.3-143.622-184.715z"/><path d="m155.563 246.465c-4.854-2.639-10.925-.841-13.562 4.011-2.638 4.853-.842 10.924 4.011 13.562 26.182 14.23 47.771 36.812 60.792 63.586 3.302 6.791 6.083 13.894 8.265 21.112 1.275 4.22 5.164 7.106 9.572 7.106s8.297-2.887 9.572-7.106c4.146-13.716 9.431-27.214 15.706-40.118 4.408-9.065 9.313-17.848 14.672-26.337 5.083 1.619 10.317 2.782 15.667 3.441 3.503.432 6.992.643 10.456.643 36.385-.001 69.704-23.279 81.615-58.34 3.163-9.311 9.088-17.552 17.134-23.833 2.316-1.808 3.72-4.543 3.839-7.479.118-2.936-1.061-5.775-3.224-7.764-13.33-12.258-29.84-19.88-47.745-22.041-22.988-2.776-45.659 3.588-63.846 17.913-18.098 14.255-29.53 34.654-32.192 57.439-1.125 9.638-.585 19.781 1.46 29.108.039.18-.049-.176 0 0-5.81 9.183-11.05 18.689-15.823 28.503-2.802 5.762-5.42 11.633-7.842 17.586-14.894-29.87-39.177-55.04-68.527-70.992zm110.598-1.886c2.04-17.464 10.812-33.107 24.702-44.048 13.979-11.011 31.402-15.899 49.074-13.769 10.093 1.218 19.61 4.704 28.009 10.206-6.508 7.169-11.46 15.519-14.554 24.623-10.012 29.471-39.732 48.09-70.688 44.281-2.064-.254-4.106-.605-6.122-1.046 7.344-9.847 15.355-19.221 24.019-28.06 3.866-3.944 3.803-10.275-.142-14.142s-10.276-3.802-14.142.142c-7.176 7.321-13.934 14.985-20.272 22.958.038-.381.071-.763.116-1.145z"/><circle cx="255.891" cy="75.554" r="10"/></g></g></svg>