<svg id="_x31__x2C_5" height="512" viewBox="0 0 36 36" width="512" xmlns="http://www.w3.org/2000/svg"><path d="m8.377 31.833c6.917 0 11.667 3.583 15 3.583s10.333-1.916 10.333-17.249-9.417-17.584-13.083-17.584c-17.167 0-24.5 31.25-12.25 31.25z" fill="#efefef"/><g fill="#a4afc1"><path d="m5.773 2.467h2.001v1h-2.001z" transform="matrix(.707 -.707 .707 .707 -.114 5.658)"/><path d="m1.707 6.533h2v1h-2z" transform="matrix(.707 -.707 .707 .707 -4.18 3.974)"/><path d="m2.384 1.967h1v2h-1z" transform="matrix(.707 -.707 .707 .707 -1.253 2.908)"/></g><path d="m8.75 22.25c-1.105 0-2-.895-2-2v-2.75h.5c1.381 0 2.5-1.119 2.5-2.5 0-1.381-1.119-2.5-2.5-2.5h-.5v-2.75c0-1.105.895-2 2-2h16.5c1.105 0 2 .895 2 2v2.75h-.5c-1.381 0-2.5 1.119-2.5 2.5 0 1.381 1.119 2.5 2.5 2.5h.5v2.75c0 1.105-.895 2-2 2z" fill="#f3f3f1"/><circle cx="23.5" cy="22.5" fill="#2fdf84" r="5.75"/><path d="m9 20.25v-2.75h.5c1.381 0 2.5-1.119 2.5-2.5 0-1.381-1.119-2.5-2.5-2.5h-.5v-2.75c0-1.105.895-2 2-2h-2.25c-1.105 0-2 .895-2 2v2.75h.5c1.381 0 2.5 1.119 2.5 2.5 0 1.381-1.119 2.5-2.5 2.5h-.5v2.75c0 1.105.895 2 2 2h2.25c-1.105 0-2-.895-2-2z" fill="#d5dbe1"/><path d="m20 22.5c0-2.79 1.988-5.115 4.625-5.638-.364-.072-.74-.112-1.125-.112-3.176 0-5.75 2.574-5.75 5.75s2.574 5.75 5.75 5.75c.385 0 .761-.039 1.125-.112-2.637-.523-4.625-2.848-4.625-5.638z" fill="#00b871"/><path d="m23.5 29c-3.584 0-6.5-2.916-6.5-6.5s2.916-6.5 6.5-6.5 6.5 2.916 6.5 6.5-2.916 6.5-6.5 6.5zm0-11.5c-2.757 0-5 2.243-5 5s2.243 5 5 5 5-2.243 5-5-2.243-5-5-5z"/><path d="m22.5 25.25c-.198 0-.39-.079-.53-.22l-1.75-1.75 1.061-1.061 1.181 1.18 2.723-3.141 1.133.982-3.25 3.75c-.136.157-.332.251-.54.258-.01.002-.019.002-.028.002z"/><path d="m15 23h-6.25c-1.517 0-2.75-1.233-2.75-2.75v-2.75c0-.414.336-.75.75-.75h.5c.965 0 1.75-.785 1.75-1.75s-.785-1.75-1.75-1.75h-.5c-.414 0-.75-.336-.75-.75v-2.75c0-1.517 1.233-2.75 2.75-2.75h16.5c1.517 0 2.75 1.233 2.75 2.75v2.75c0 .414-.336.75-.75.75h-.5c-.381 0-.741.12-1.044.346l-.601.449-.898-1.201.601-.449c.497-.372 1.078-.589 1.692-.635v-2.01c0-.689-.561-1.25-1.25-1.25h-16.5c-.689 0-1.25.561-1.25 1.25v2.009c1.676.128 3 1.533 3 3.241s-1.324 3.112-3 3.241v2.009c0 .689.561 1.25 1.25 1.25h6.25z"/><path d="m13.5 7h1.5v3.5h-1.5z"/><path d="m13.5 12.5h1.5v5h-1.5z"/><path d="m13.5 19.5h1.5v3.5h-1.5z"/></svg>