<svg id="_x31__x2C_5" height="512" viewBox="0 0 36 36" width="512" xmlns="http://www.w3.org/2000/svg"><path d="m8.377 31.833c6.917 0 11.667 3.583 15 3.583s10.333-1.916 10.333-17.249-9.417-17.584-13.083-17.584c-17.167 0-24.5 31.25-12.25 31.25z" fill="#efefef"/><path d="m29.625 2.25h1v2h-1z" fill="#a4afc1"/><path d="m31.875 5.25h2v1h-2z" fill="#a4afc1"/><path d="m27.25 21.875h-13.5l-2-9.5h17.5z" fill="#f3f3f1"/><circle cx="23.5" cy="12.125" fill="#2fdf84" r="5.75"/><path d="m11.75 12.375 2 9.5h2.25l-2-9.5z" fill="#d5dbe1"/><path d="m20 12.125c0-2.79 1.988-5.115 4.625-5.638-.364-.072-.74-.112-1.125-.112-3.176 0-5.75 2.574-5.75 5.75s2.574 5.75 5.75 5.75c.385 0 .761-.039 1.125-.112-2.637-.523-4.625-2.848-4.625-5.638z" fill="#00b871"/><path d="m23.5 18.625c-3.584 0-6.5-2.916-6.5-6.5s2.916-6.5 6.5-6.5 6.5 2.916 6.5 6.5-2.916 6.5-6.5 6.5zm0-11.5c-2.757 0-5 2.243-5 5s2.243 5 5 5 5-2.243 5-5-2.243-5-5-5z"/><path d="m22.5 14.875c-.198 0-.39-.079-.53-.22l-2.28-2.28 1.061-1.061 1.711 1.71 3.214-3.708 1.133.982-3.741 4.317c-.136.157-.332.251-.54.258-.01.002-.019.002-.028.002z"/><path d="m27.25 22.625h-13.5c-.354 0-.661-.249-.734-.596l-2-9.5c-.046-.221.01-.451.152-.627.142-.175.356-.277.582-.277h3.25v1.5h-2.325l1.684 8h12.283l.428-2.036 1.469.309-.554 2.631c-.074.347-.381.596-.735.596z"/><path d="m13.016 22.029-2.506-11.901c-.12-.573-.632-.99-1.217-.992l-3.545-.011.004-1.5 3.546.011c1.289.005 2.416.924 2.681 2.184l2.506 11.9z"/><path d="m28 25.625h-15.75c-1.24 0-2.25-1.009-2.25-2.25s1.01-2.25 2.25-2.25h2.25v1.5h-2.25c-.413 0-.75.336-.75.75s.337.75.75.75h15.75z"/><circle cx="16.5" cy="28.125" r="1.5"/><circle cx="24.5" cy="28.125" r="1.5"/></svg>