<?xml version="1.0" encoding="utf-8"?>
<!-- Generator: Adobe Illustrator 26.3.1, SVG Export Plug-In . SVG Version: 6.00 Build 0)  -->
<svg version="1.1" id="Layer_1" xmlns="http://www.w3.org/2000/svg" xmlns:xlink="http://www.w3.org/1999/xlink" x="0px" y="0px"
	 viewBox="0 0 512 512" style="enable-background:new 0 0 512 512;" xml:space="preserve">
<style type="text/css">
	.st0{fill:#9AFF77;}
</style>
<g>
	<g>
		<g>
			<path class="st0" d="M456.3,85.3h-55.5C386.8,36.2,341.6,0,288,0s-98.8,36.2-112.8,85.3h-69.4l-3.5-11.9
				c-5.3-18.1-22.1-30.7-41-30.7H32c-5.9,0-10.7,4.8-10.7,10.7S26.1,64,32,64h29.3c9.4,0,17.8,6.3,20.5,15.4L148.2,307l-34,42.5
				c-4.9,6.1-7.5,13.7-7.5,21.5c0,18.9,15.4,34.4,34.4,34.4h296.3c5.9,0,10.7-4.8,10.7-10.7s-4.8-10.7-10.7-10.7H141
				c-7.2,0-13-5.8-13-13c0-2.9,1-5.8,2.9-8.1l34.3-42.8h209.2c16.4,0,31.6-9.6,38.6-24.5l74.4-158.2c2.1-4.6,3.3-9.6,3.3-14.6v-3
				C490.7,100.7,475.3,85.3,456.3,85.3z M288,21.3c52.9,0,96,43.1,96,96s-43.1,96-96,96s-96-43.1-96-96S235.1,21.3,288,21.3z
				 M469.3,122.7c0,1.9-0.4,3.8-1.2,5.5l-74.4,158.2c-3.5,7.4-11.1,12.2-19.3,12.2H168l-56-192h59.2c-0.3,3.5-0.5,7.1-0.5,10.7
				c0,64.7,52.6,117.3,117.3,117.3S405.3,182,405.3,117.3c0-3.6-0.2-7.1-0.5-10.7h51.5c7.2,0,13,5.8,13,13L469.3,122.7L469.3,122.7z
				"/>
			<path class="st0" d="M149.3,426.7c-23.5,0-42.7,19.1-42.7,42.7s19.1,42.7,42.7,42.7s42.7-19.1,42.7-42.7S172.9,426.7,149.3,426.7
				z M149.3,490.7c-11.8,0-21.3-9.6-21.3-21.3s9.6-21.3,21.3-21.3s21.3,9.6,21.3,21.3C170.7,481.1,161.1,490.7,149.3,490.7z"/>
			<path class="st0" d="M405.3,426.7c-23.5,0-42.7,19.1-42.7,42.7s19.1,42.7,42.7,42.7s42.7-19.1,42.7-42.7S428.9,426.7,405.3,426.7
				z M405.3,490.7c-11.8,0-21.3-9.6-21.3-21.3s9.6-21.3,21.3-21.3s21.3,9.6,21.3,21.3C426.7,481.1,417.1,490.7,405.3,490.7z"/>
			<path class="st0" d="M259.1,167.5c2.1,2.1,4.8,3.1,7.5,3.1s5.5-1,7.5-3.1l74.7-74.7c4.2-4.2,4.2-10.9,0-15.1
				c-4.2-4.2-10.9-4.2-15.1,0l-67.1,67.1l-24.5-24.5c-4.2-4.2-10.9-4.2-15.1,0c-4.2,4.2-4.2,10.9,0,15.1L259.1,167.5z"/>
		</g>
	</g>
</g>
</svg>
