<?xml version="1.0" encoding="utf-8"?>
<!-- Generator: Adobe Illustrator 26.3.1, SVG Export Plug-In . SVG Version: 6.00 Build 0)  -->
<svg version="1.1" id="Layer_1" xmlns="http://www.w3.org/2000/svg" xmlns:xlink="http://www.w3.org/1999/xlink" x="0px" y="0px"
	 viewBox="0 0 618 618" style="enable-background:new 0 0 618 618;" xml:space="preserve">
<style type="text/css">
	.st0{fill:#9AFF77;}
</style>
<path class="st0" d="M239.3,282.8c72.9,0,131.9-59.1,131.9-131.9C371.3,78,312.2,19,239.3,19S107.4,78,107.4,150.9
	C107.5,223.7,166.5,282.8,239.3,282.8z M239.3,43.9c59.1,0,107,47.9,107,107c0,59.1-47.9,107-107,107c-59.1,0-107-47.9-107-107
	C132.4,91.9,180.3,44,239.3,43.9z"/>
<path class="st0" d="M582.2,356.6l-107.6-57.3c-3.7-2-8.2-2-11.9,0.1l-98.5,53.9c-36.1-26.8-79.3-40.8-125.2-40.8
	c-57.2,0.1-110.2,22.3-149.5,62.8C49.8,416.1,27.9,471.9,28,532.4c0,6.9,5.6,12.5,12.5,12.5l347.2-0.6
	c16.3,20.3,37.3,36.3,61.2,46.7l14.5,6.4c1.6,0.7,3.3,1,5,1c1.7,0,3.4-0.4,5-1l16.3-7.1c60.1-25.2,99.1-84,99.1-149.2v-73.4
	C588.8,363.1,586.3,358.8,582.2,356.6z M53.4,519.8c2.6-49.1,21.7-93.9,54.2-127.2c34.6-35.6,81.4-55.2,131.7-55.2h0.4
	c41.3,0,80,13,112.1,37.6v67.5c0,26.8,6.7,53.2,19.5,76.8L53.4,519.8z M563.9,441.1c0,55.2-33.1,104.9-84,126.2h-0.1l-11.4,4.9
	l-9.5-4.1c-49.9-21.8-82.2-71.1-82.2-125.6v-67.5l92.2-50.5l95,50.7V441.1z"/>
<path class="st0" d="M434.7,434.5c-4.5-5.2-12.4-5.8-17.6-1.4c-5.2,4.5-5.8,12.4-1.4,17.6l28.3,33.1c2.4,2.8,5.8,4.4,9.5,4.4
	c2.9,0,5.6-0.9,7.9-2.7l65.9-53.5c5.3-4.4,6.1-12.3,1.7-17.6c-4.4-5.3-12.3-6.1-17.6-1.7L455,458.4L434.7,434.5z"/>
</svg>
